# xmcd CD database file
# Copyright (C) 1993-1996 Ti Kan
#
# Track frame offsets:
# 150
# 19262
# 31687
# 45677
# 68820
# 91835
# 108325
# 129912
# 149272
#
# Disc length: 2219 seconds
#
# Revision: 0
# Processed by: cddbd v1.4b41PL1 Copyright (c) Steve Scherf et al.
# Submitted via: inCDius 1.1b5
#
DISCID=6d08a909
DTITLE=B. B. King - Blues And Jazz
DYEAR=1900
DGENRE=
TTITLE0=Inflation Blues
TTITLE1=Broken Heart
TTITLE2=Sell My Monkey
TTITLE3=Heed My warning
TTITLE4=Teardrops From My Eyes
TTITLE5=Rainbow Riot
TTITLE6=Darlin' You Know I Love You
TTITLE7=Make Love To Me
TTITLE8=I Can't Let You Go
EXTD=
EXTT0=
EXTT1=
EXTT2=
EXTT3=
EXTT4=
EXTT5=
EXTT6=
EXTT7=
EXTT8=
PLAYORDER=
